<?xml version="1.0" standalone="no"?>
<!DOCTYPE svg PUBLIC "-//W3C//DTD SVG 1.1//EN"
"http://www.w3.org/Graphics/SVG/1.1/DTD/svg11.dtd">

<svg width="507" height="186" view_box="0 0 507 186"
xmlns="http://www.w3.org/2000/svg"
xmlns:link="http://www.w3.org/1999/xlink">\n\n<desc>Généré par Mocodo 2.3.7 le Mon, 09 Mar 2020 08:29:20</desc>

<rect id="frame" x="0" y="0" width="507" height="186" fill="none" stroke="none" stroke-width="0"/>

<!-- Association IS PLANTED IN -->
<line x1="242" y1="143" x2="356" y2="143" stroke="#57483d" stroke-width="2"/>
<text x="276" y="160.0" fill="#57483d" font-family="Verdana" font-size="12">1,1</text>
<line x1="451" y1="51" x2="356" y2="143" stroke="#57483d" stroke-width="2"/>
<text x="405.719840411" y="110" fill="#57483d" font-family="Verdana" font-size="12">1,N</text>
<g id="association-IS PLANTED IN">
	<path d="M 395 118 a 14 14 90 0 1 14 14 V 143 h -106 V 132 a 14 14 90 0 1 14 -14" fill="#c6aea5" stroke="#c6aea5" stroke-width="0"/>
	<path d="M 409 143.0 v 11 a 14 14 90 0 1 -14 14 H 317 a 14 14 90 0 1 -14 -14 V 143.0 H 106" fill="#d3b5b2" stroke="#d3b5b2" stroke-width="0"/>
	<rect x="303" y="118" width="106" height="50" fill="none" rx="14" stroke="none" stroke-width="2"/>
	<line x1="303" y1="143" x2="409" y2="143" stroke="none" stroke-width="1"/>
	<text x="310" y="135.7" fill="#422f2c" font-family="Verdana" font-size="12">IS PLANTED IN</text>
</g>

<!-- Association DF1 -->
<line x1="52" y1="51" x2="143" y2="51" stroke="#57483d" stroke-width="2"/>
<text x="100" y="68.0" fill="#57483d" font-family="Verdana" font-size="12">1,N</text>
<line x1="242" y1="51" x2="143" y2="51" stroke="#57483d" stroke-width="2"/>
<text x="165" y="68.0" fill="#57483d" font-family="Verdana" font-size="12">1,1</text>
<g id="association-DF1">
	<circle cx="143" cy="51" r="16" stroke="none" stroke-width="2" fill="#c6aea5"/>
	<text x="134" y="55.0" fill="#422f2c" font-family="Verdana" font-size="12">DF</text>
</g>

<!-- Association DF3 -->
<line x1="52" y1="143" x2="143" y2="143" stroke="#57483d" stroke-width="2"/>
<text x="94" y="160.0" fill="#57483d" font-family="Verdana" font-size="12">1,N</text>
<line x1="242" y1="143" x2="143" y2="143" stroke="#57483d" stroke-width="2"/>
<text x="187" y="160.0" fill="#57483d" font-family="Verdana" font-size="12">1,1</text>
<line x1="187" y1="162.0" x2="208" y2="162.0" stroke="#57483d" stroke-width="1"/>
<g id="association-DF3">
	<circle cx="143" cy="143" r="16" stroke="none" stroke-width="2" fill="#c6aea5"/>
	<text x="134" y="147.0" fill="#422f2c" font-family="Verdana" font-size="12">DF</text>
</g>

<!-- Association DF2 -->
<line x1="242" y1="51" x2="356" y2="51" stroke="#57483d" stroke-width="2"/>
<text x="298" y="68.0" fill="#57483d" font-family="Verdana" font-size="12">1,N</text>
<line x1="451" y1="51" x2="356" y2="51" stroke="#57483d" stroke-width="2"/>
<text x="378" y="43.0" fill="#57483d" font-family="Verdana" font-size="12">1,1</text>
<g id="association-DF2">
	<circle cx="356" cy="51" r="16" stroke="none" stroke-width="2" fill="#c6aea5"/>
	<text x="347" y="55.0" fill="#422f2c" font-family="Verdana" font-size="12">DF</text>
</g>

<!-- Entity FIELD -->
<g id="entity-FIELD">
	<g id="frame-FIELD">
		<rect x="15" y="109" width="74" height="25" fill="#cbcbb5" stroke="#cbcbb5" stroke-width="0"/>
		<rect x="15" y="134.0" width="74" height="43" fill="#e4e3b4" stroke="#e4e3b4" stroke-width="0"/>
		<rect x="15" y="109" width="74" height="68" fill="none" stroke="none" stroke-width="2"/>
		<line x1="15" y1="134" x2="89" y2="134" stroke="none" stroke-width="1"/>
	</g>
	<text x="34" y="126.7" fill="#422f2c" font-family="Verdana" font-size="12">FIELD</text>
	<text x="20" y="151.8" fill="#57483d" font-family="Verdana" font-size="12">field name</text>
	<line x1="20" y1="154" x2="84" y2="154" stroke="#57483d" stroke-width="1"/>
	<text x="20" y="168.8" fill="#57483d" font-family="Verdana" font-size="12">location</text>
</g>

<!-- Entity ROW -->
<g id="entity-ROW">
	<g id="frame-ROW">
		<rect x="213" y="118" width="58" height="25" fill="#cbcbb5" stroke="#cbcbb5" stroke-width="0"/>
		<rect x="213" y="143.0" width="58" height="25" fill="#e4e3b4" stroke="#e4e3b4" stroke-width="0"/>
		<rect x="213" y="118" width="58" height="50" fill="none" stroke="none" stroke-width="2"/>
		<line x1="213" y1="143" x2="271" y2="143" stroke="none" stroke-width="1"/>
	</g>
	<text x="226" y="135.7" fill="#422f2c" font-family="Verdana" font-size="12">ROW</text>
	<text x="218" y="160.8" fill="#57483d" font-family="Verdana" font-size="12">number</text>
	<line x1="218" y1="163" x2="266" y2="163" style="fill:none;stroke:#57483d;stroke-width:1;stroke-dasharray:4;"/>
</g>

<!-- Entity SPECIES -->
<g id="entity-SPECIES">
	<g id="frame-SPECIES">
		<rect x="191" y="17" width="102" height="25" fill="#cbcbb5" stroke="#cbcbb5" stroke-width="0"/>
		<rect x="191" y="42.0" width="102" height="43" fill="#e4e3b4" stroke="#e4e3b4" stroke-width="0"/>
		<rect x="191" y="17" width="102" height="68" fill="none" stroke="none" stroke-width="2"/>
		<line x1="191" y1="42" x2="293" y2="42" stroke="none" stroke-width="1"/>
	</g>
	<text x="215" y="34.7" fill="#422f2c" font-family="Verdana" font-size="12">SPECIES</text>
	<text x="196" y="59.8" fill="#57483d" font-family="Verdana" font-size="12">scientific name</text>
	<line x1="196" y1="62" x2="287" y2="62" stroke="#57483d" stroke-width="1"/>
	<text x="196" y="76.8" fill="#57483d" font-family="Verdana" font-size="12">common name</text>
</g>

<!-- Entity FAMILY -->
<g id="entity-FAMILY">
	<g id="frame-FAMILY">
		<rect x="9" y="26" width="86" height="25" fill="#cbcbb5" stroke="#cbcbb5" stroke-width="0"/>
		<rect x="9" y="51.0" width="86" height="25" fill="#e4e3b4" stroke="#e4e3b4" stroke-width="0"/>
		<rect x="9" y="26" width="86" height="50" fill="none" stroke="none" stroke-width="2"/>
		<line x1="9" y1="51" x2="95" y2="51" stroke="none" stroke-width="1"/>
	</g>
	<text x="29" y="43.7" fill="#422f2c" font-family="Verdana" font-size="12">FAMILY</text>
	<text x="14" y="68.8" fill="#57483d" font-family="Verdana" font-size="12">family name</text>
	<line x1="14" y1="71" x2="90" y2="71" stroke="#57483d" stroke-width="1"/>
</g>

<!-- Entity VARIETY -->
<g id="entity-VARIETY">
	<g id="frame-VARIETY">
		<rect x="404" y="9" width="94" height="25" fill="#cbcbb5" stroke="#cbcbb5" stroke-width="0"/>
		<rect x="404" y="34.0" width="94" height="59" fill="#e4e3b4" stroke="#e4e3b4" stroke-width="0"/>
		<rect x="404" y="9" width="94" height="84" fill="none" stroke="none" stroke-width="2"/>
		<line x1="404" y1="34" x2="498" y2="34" stroke="none" stroke-width="1"/>
	</g>
	<text x="424" y="26.7" fill="#422f2c" font-family="Verdana" font-size="12">VARIETY</text>
	<text x="409" y="51.8" fill="#57483d" font-family="Verdana" font-size="12">cultivar name</text>
	<line x1="409" y1="54" x2="492" y2="54" stroke="#57483d" stroke-width="1"/>
	<text x="409" y="68.8" fill="#57483d" font-family="Verdana" font-size="12">bitterness</text>
	<text x="409" y="85.8" fill="#57483d" font-family="Verdana" font-size="12">juiciness</text>
</g>
</svg>